<?xml version="1.0" encoding="UTF-8" standalone="no"?>
<svg width="100px" height="100px" viewBox="0 0 100 100" version="1.1" xmlns="http://www.w3.org/2000/svg" xmlns:xlink="http://www.w3.org/1999/xlink" xmlns:sketch="http://www.bohemiancoding.com/sketch/ns">
    <!-- Generator: Sketch 3.0.4 (8054) - http://www.bohemiancoding.com/sketch -->
    <title>clock</title>
    <desc>Created with Sketch.</desc>
    <defs></defs>
    <g id="Page-1" stroke="none" stroke-width="1" fill="none" fill-rule="evenodd" sketch:type="MSPage">
        <g id="clock" sketch:type="MSArtboardGroup" fill="#000000">
            <g id="Oval-9-+-Path-16" sketch:type="MSLayerGroup" transform="translate(13.000000, 13.000000)">
                <path d="M33.9793615,37.1802623 L33.9793615,38.2633697 L34.7452342,39.0292424 L48.0307546,52.3147628 C48.808907,53.0929152 50.0670327,53.0964238 50.8588762,52.3045802 L51.7185323,51.4449241 C52.5023084,50.6611481 52.5062805,49.3943682 51.7287149,48.6168026 L38.4431945,35.3312821 L39.2090671,37.1802623 L39.2090671,18.8671992 C39.2090671,17.7606159 38.3219189,16.8635529 37.202083,16.8635529 L35.9863456,16.8635529 C34.8779189,16.8635529 33.9793615,17.7627513 33.9793615,18.8671992 L33.9793615,37.1802623 Z" id="Path-16" sketch:type="MSShapeGroup"></path>
                <path d="M73.5,37 C73.5,16.8416066 57.1583934,0.5 37,0.5 C16.8416066,0.5 0.5,16.8416066 0.5,37 C0.5,57.1583934 16.8416066,73.5 37,73.5 C57.1583934,73.5 73.5,57.1583934 73.5,37 Z M5.5,37 C5.5,19.6030304 19.6030304,5.5 37,5.5 C54.3969696,5.5 68.5,19.6030304 68.5,37 C68.5,54.3969696 54.3969696,68.5 37,68.5 C19.6030304,68.5 5.5,54.3969696 5.5,37 Z" id="Oval-9" sketch:type="MSShapeGroup"></path>
            </g>
        </g>
    </g>
</svg>