<?xml version="1.0" encoding="UTF-8" standalone="no"?>
<svg width="100px" height="100px" viewBox="0 0 100 100" version="1.1" xmlns="http://www.w3.org/2000/svg" xmlns:xlink="http://www.w3.org/1999/xlink" xmlns:sketch="http://www.bohemiancoding.com/sketch/ns">
    <!-- Generator: Sketch 3.0.4 (8054) - http://www.bohemiancoding.com/sketch -->
    <title>pin</title>
    <desc>Created with Sketch.</desc>
    <defs></defs>
    <g id="Page-1" stroke="none" stroke-width="1" fill="none" fill-rule="evenodd" sketch:type="MSPage">
        <g id="pin" sketch:type="MSArtboardGroup" fill="#000000">
            <path d="M22.8584681,37.9025 C22.8584681,38.2214452 22.8669142,38.5527317 22.8830468,38.9261541 C22.9841807,41.7936706 23.5188843,44.6090208 24.4612483,47.2792464 C25.4328215,50.5184594 26.9062699,54.1556264 28.7909079,58.041134 C30.7440025,62.0677767 33.1068629,66.2966314 35.791528,70.651733 C38.5729127,75.1637344 41.5492511,79.5724789 44.5256964,83.7016957 C45.5678189,85.1474304 46.5361405,86.455785 47.406227,87.6044552 C47.7117636,88.0078183 47.9835312,88.3628262 48.2184726,88.6666834 C48.3610395,88.8510696 48.460643,88.9786823 48.5142246,89.0467224 L50.478339,91.5408336 L52.4424234,89.0466987 C52.4960034,88.9786589 52.595604,88.8510468 52.7381664,88.6666616 C52.9731005,88.3628062 53.2448595,88.0078002 53.5503864,87.6044393 C54.4204453,86.4557753 55.3887361,85.1474268 56.4308254,83.7016975 C59.4071755,79.5724963 62.3834187,75.1637582 65.1647143,70.6517498 C67.8494576,66.2963752 70.2123652,62.0672539 72.1654639,58.0403622 C74.0493988,54.1560719 75.5224124,50.5199537 76.5303915,47.1697905 C77.4368665,44.6142335 77.9716885,41.795937 78.0728976,38.9057416 C78.0886419,38.5821285 78.0974196,38.23805 78.0974196,37.9025 C78.0982339,22.4993289 65.7383498,10 50.4783147,10 C35.2184275,10 22.8584681,22.4991502 22.8584681,37.9025 Z M73.0974196,37.9023678 C73.0974196,38.1554143 73.0906728,38.4198845 73.0773043,38.6983827 C72.9925725,41.1120407 72.553201,43.4273517 71.779366,45.6162071 C70.8181099,48.8012677 69.4423074,52.1974214 67.6666856,55.858392 C65.7931167,59.7213096 63.5103757,63.8069489 60.9083924,68.0280646 C58.1954586,72.4291718 55.2850274,76.7404219 52.3747031,80.7780231 C51.3564564,82.1906746 50.4115779,83.4673887 49.5646902,84.5854618 C49.2692858,84.9754588 49.0075649,85.3173516 48.7826025,85.60831 C48.6492271,85.7808131 48.5587371,85.8967524 48.5142059,85.9533013 L52.4424048,85.9532776 C52.3978719,85.8967281 52.3073788,85.7807876 52.1739988,85.608283 C51.9490289,85.3173223 51.6872993,84.9754269 51.3918851,84.5854272 C50.5449693,83.4673466 49.6000598,82.1906253 48.5817796,80.7779671 C45.6713598,76.7403472 42.7608332,72.4290876 40.0478106,68.027984 C37.4459006,63.807129 35.1632029,59.7217429 33.289635,55.8590582 C31.5133553,52.1969502 30.1371544,48.7998359 29.2127593,45.7270509 C28.4025796,43.4230618 27.9631385,41.1092929 27.8791612,38.7300649 C27.8651419,38.4037523 27.8584681,38.1419834 27.8584681,37.9025 C27.8584681,25.2481178 37.9924626,15 50.4783147,15 C62.964248,15 73.0980886,25.2481711 73.0974196,37.9023678 Z M40.6753671,37.9025 C40.6753671,32.4068796 45.0713362,27.9615 50.4783147,27.9615 C55.885755,27.9615 60.2812622,32.4065975 60.2812622,37.9025 C60.2812622,43.3990595 55.8858461,47.84425 50.4783147,47.84425 C45.0712451,47.84425 40.6753671,43.3987775 40.6753671,37.9025 Z M65.2812622,37.9025 C65.2812622,29.6576525 58.6598132,22.9615 50.4783147,22.9615 C42.2973252,22.9615 35.6753671,29.6578885 35.6753671,37.9025 C35.6753671,46.1477225 42.2971869,52.84425 50.4783147,52.84425 C58.6599515,52.84425 65.2812622,46.1479585 65.2812622,37.9025 Z" id="Shape" sketch:type="MSShapeGroup"></path>
        </g>
    </g>
</svg>